<svg width="17" height="17" viewBox="0 0 17 17" fill="none" xmlns="http://www.w3.org/2000/svg">
<path id="&#208;&#191;&#208;&#190;&#208;&#184;&#209;&#129;&#208;&#186;" d="M16.8083 15.8839L11.5978 10.6734C12.521 9.54615 13.0768 8.10638 13.0768 6.53846C13.0768 2.93315 10.1437 0 6.5384 0C2.93313 0 0 2.93315 0 6.53846C0 10.1438 2.93313 13.0769 6.5384 13.0769C8.10631 13.0769 9.54606 12.5212 10.6733 11.5979L15.8837 16.8084C16.0112 16.9359 16.1786 17 16.346 17C16.5134 17 16.6808 16.9359 16.8083 16.8084C17.0639 16.5528 17.0639 16.1395 16.8083 15.8839ZM1.30768 6.53846C1.30768 3.65435 3.65431 1.30769 6.5384 1.30769C9.42249 1.30769 11.7691 3.65435 11.7691 6.53846C11.7691 9.42258 9.42249 11.7692 6.5384 11.7692C3.65431 11.7692 1.30768 9.42258 1.30768 6.53846Z" fill="#1D1D1B"/>
</svg>
