<svg width="24" height="14" viewBox="0 0 24 14" fill="none" xmlns="http://www.w3.org/2000/svg">
<path d="M5.15071 12.1621C7.22006 13.3421 9.56732 13.9775 11.9387 13.9994C11.9822 13.9998 12.025 14 12.0684 14C16.9282 14 21.3579 11.4747 23.9369 7.22607C24.021 7.08753 24.021 6.91247 23.9369 6.77393C21.3577 2.52502 16.9285 0 12.0684 0C12.0253 0 11.9818 0.000191041 11.9387 0.000620832C9.56732 0.0224924 7.2201 0.657818 5.15071 1.83788C3.08137 3.01789 1.32253 4.72412 0.0642656 6.77197C-0.0214219 6.91146 -0.0214219 7.08854 0.0642656 7.22803C1.32253 9.27588 3.08137 10.9821 5.15071 12.1621ZM11.9463 0.860154C11.9871 0.859772 12.0273 0.859581 12.0681 0.859581C16.5465 0.859581 20.6369 3.14363 23.0791 7C20.6368 10.8566 16.5469 13.1404 12.0681 13.1404C12.0276 13.1404 11.9869 13.1402 11.9463 13.1398C7.46662 13.0985 3.36567 10.8088 0.92264 7C3.36567 3.19124 7.46662 0.90151 11.9463 0.860154ZM12 12.2053C14.8174 12.2053 17.1094 9.87024 17.1094 7C17.1094 4.12976 14.8174 1.79471 12 1.79471C9.18262 1.79471 6.89057 4.12976 6.89057 7C6.89057 9.87024 9.18262 12.2053 12 12.2053ZM12 2.65429C14.3521 2.65429 16.2657 4.60377 16.2657 7C16.2657 9.39623 14.3521 11.3457 12 11.3457C9.6479 11.3457 7.73432 9.39623 7.73432 7C7.73432 4.60377 9.6479 2.65429 12 2.65429ZM11.5781 3.99142C11.5781 3.75403 11.767 3.56163 12 3.56163C13.861 3.56163 15.375 5.10405 15.375 7C15.375 7.23739 15.1862 7.42979 14.9532 7.42979C14.7201 7.42979 14.5313 7.23739 14.5313 7C14.5313 5.57806 13.3957 4.42121 12 4.42121C11.767 4.42121 11.5781 4.22881 11.5781 3.99142Z" fill="#1D1D1B"/>
</svg>
